<?xml version="1.0" encoding="UTF-8" standalone="no"?>
<!-- Created with Inkscape (http://www.inkscape.org/) -->

<svg
   xmlns:dc="http://purl.org/dc/elements/1.1/"
   xmlns:cc="http://creativecommons.org/ns#"
   xmlns:rdf="http://www.w3.org/1999/02/22-rdf-syntax-ns#"
   xmlns:svg="http://www.w3.org/2000/svg"
   xmlns="http://www.w3.org/2000/svg"
   xmlns:sodipodi="http://sodipodi.sourceforge.net/DTD/sodipodi-0.dtd"
   xmlns:inkscape="http://www.inkscape.org/namespaces/inkscape"
   width="420.87115"
   height="159.15297"
   id="svg3393"
   version="1.1"
   inkscape:version="0.92.3 (2405546, 2018-03-11)"
   viewBox="0 0 420.87115 159.15297"
   sodipodi:docname="logo.svg"
   inkscape:export-filename="/home/gram/Documents/dephell/assets/logo2.png"
   inkscape:export-xdpi="136.86"
   inkscape:export-ydpi="136.86">
  <defs
     id="defs3395" />
  <sodipodi:namedview
     id="base"
     pagecolor="#ffffff"
     bordercolor="#ffffff"
     borderopacity="0.0"
     inkscape:pageopacity="0.0"
     inkscape:pageshadow="0"
     inkscape:zoom="1.4"
     inkscape:cx="66.012376"
     inkscape:cy="96.842018"
     inkscape:document-units="px"
     inkscape:current-layer="text3369"
     showgrid="true"
     inkscape:snap-global="false"
     inkscape:snap-bbox="true"
     inkscape:bbox-paths="true"
     inkscape:snap-bbox-edge-midpoints="true"
     inkscape:bbox-nodes="true"
     inkscape:snap-bbox-midpoints="true"
     inkscape:object-paths="false"
     inkscape:snap-intersection-paths="false"
     inkscape:window-width="1600"
     inkscape:window-height="794"
     inkscape:window-x="1080"
     inkscape:window-y="1062"
     inkscape:window-maximized="1"
     fit-margin-top="0"
     fit-margin-left="0"
     fit-margin-right="0"
     fit-margin-bottom="0">
    <inkscape:grid
       type="xygrid"
       id="grid3473"
       originx="220.43557"
       originy="201.10429" />
  </sodipodi:namedview>
  <metadata
     id="metadata3398">
    <rdf:RDF>
      <cc:Work
         rdf:about="">
        <dc:format>image/svg+xml</dc:format>
        <dc:type
           rdf:resource="http://purl.org/dc/dcmitype/StillImage" />
        <dc:title></dc:title>
      </cc:Work>
    </rdf:RDF>
  </metadata>
  <g
     inkscape:label="Layer 1"
     inkscape:groupmode="layer"
     id="layer1"
     transform="translate(220.43558,-1094.3135)">
    <g
       transform="translate(-440.12394,1038.3232)"
       id="g7" />
    <g
       transform="translate(-440.12394,1038.3232)"
       id="g9" />
    <g
       transform="translate(-440.12394,1038.3232)"
       id="g11" />
    <g
       transform="translate(-440.12394,1038.3232)"
       id="g13" />
    <g
       transform="translate(-440.12394,1038.3232)"
       id="g15" />
    <g
       transform="translate(-440.12394,1038.3232)"
       id="g17" />
    <g
       transform="translate(-440.12394,1038.3232)"
       id="g19" />
    <g
       transform="translate(-440.12394,1038.3232)"
       id="g21" />
    <g
       transform="translate(-440.12394,1038.3232)"
       id="g23" />
    <g
       transform="translate(-440.12394,1038.3232)"
       id="g25" />
    <g
       transform="translate(-440.12394,1038.3232)"
       id="g27" />
    <g
       transform="translate(-440.12394,1038.3232)"
       id="g29" />
    <g
       transform="translate(-440.12394,1038.3232)"
       id="g31" />
    <g
       transform="translate(-440.12394,1038.3232)"
       id="g33" />
    <g
       transform="translate(-440.12394,1038.3232)"
       id="g35" />
    <g
       id="g43"
       transform="matrix(0.61728063,0,0,0.57214266,-68.546636,498.65623)">
      <path
         id="path3"
         d="m 227.26667,1189.9206 c -7.50944,-8.5334 -15.01856,-17.408 -19.79744,-27.9894 -4.77856,-11.264 -6.144,-24.2346 -3.75456,-36.5226 2.38944,-12.288 7.85056,-23.8934 15.70144,-33.792 -0.68256,8.5335 2.38944,17.408 8.192,23.8935 -3.41344,-16.384 2.048,-34.1335 12.97056,-47.104 10.92256,-12.9706 25.94144,-21.5043 41.64256,-27.3069 -7.85056,8.192 -8.87456,21.1626 -5.80256,32.0854 3.072,10.9226 9.55744,20.48 15.36,30.3786 5.80256,9.8986 11.264,20.1386 11.60544,31.4026 3.072,-5.8026 6.48544,-11.6055 8.53344,-18.0906 2.048,-6.4854 3.072,-13.312 1.36544,-19.7974 6.144,7.5094 9.55744,15.0185 11.264,24.576 1.70656,9.5574 1.36544,19.456 0.34144,29.0134 -1.36544,10.5814 -4.096,21.504 -9.89856,30.3786 -6.82656,10.5814 -17.74944,18.0905 -29.696,22.1865 -21.1632,3.7549 -41.98464,0.6829 -58.0272,-13.3117 z"
         style="fill:#aa0000"
         inkscape:connector-curvature="0" />
      <path
         id="path5"
         d="m 253.20811,1202.5498 c 27.98912,10.9228 55.63712,-22.1866 40.27712,-47.7866 0,-0.3414 -0.34144,-0.3414 -0.34144,-0.6826 1.36544,13.9946 -2.048,24.2346 -8.53344,30.0375 3.41344,-8.192 1.024,-17.7495 -3.072,-25.9415 -4.096,-7.8505 -9.89856,-15.0185 -14.336,-22.528 -4.43744,-7.8505 -7.85056,-16.7254 -5.80256,-25.6 -8.192,6.144 -13.99456,15.36 -16.384,25.2586 -2.38944,9.8986 -1.024,20.8214 3.41344,30.0374 -5.12,-3.7545 -8.87456,-9.8985 -9.216,-16.384 -5.46144,6.4855 -8.87456,15.0186 -8.53344,23.552 3.2e-4,13.312 10.58144,25.2586 22.52832,30.0372 z"
         style="fill:#ffd15c"
         inkscape:connector-curvature="0" />
    </g>
    <g
       aria-label="Dephell "
       transform="scale(1.1647031,0.8585879)"
       style="font-style:normal;font-variant:normal;font-weight:normal;font-stretch:normal;font-size:154.54582214px;line-height:125%;font-family:Frak;-inkscape-font-specification:Frak;letter-spacing:-5.30000257px;word-spacing:0px;fill:#000000;fill-opacity:1;stroke:none;stroke-width:0.85858792px;stroke-linecap:butt;stroke-linejoin:miter;stroke-opacity:1"
       id="text3369">
      <path
         d="m -127.44499,1420.5071 -0.46364,0.6182 -17.46367,10.3546 h -43.89102 l 16.8455,-95.973 h 17.77277 l -14.99095,84.6911 h 18.08186 l 9.11821,-5.2545 14.5273,-82.2184 -6.80001,-5.2546 h -36.31827 l 1.7,-8.9636 q -0.15454,-0.1546 -0.15454,-0.4637 0,-0.4636 0.46364,-0.4636 h 43.27283 l 13.75457,10.2 0.3091,0.9273 z"
         style="letter-spacing:-5.30000257px;stroke-width:0.85858792px"
         id="path29"
         inkscape:connector-curvature="0" />
      <path
         d="m -71.339589,1424.0617 -0.309092,0.6181 -10.972753,6.8001 h -26.118246 l -9.27275,-7.4182 -0.30909,-0.6182 7.4182,-40.8001 11.745483,-7.2637 h 35.545539 q 0.618183,0 0.618183,0.6182 l -4.481829,25.3455 q -0.772729,0.7728 -0.927275,0.7728 h -33.381901 l -2.62728,15.4545 3.24547,2.6273 h 7.109105 l 1.236366,-6.1818 q 0.154546,-0.9273 0.618184,-0.9273 h 22.100052 q 0.309092,0 0.309092,0.3091 z m -8.809112,-28.2819 1.700004,-10.3546 h -16.845495 l -3.863645,2.3182 -1.545463,8.0364 z"
         style="letter-spacing:-5.30000257px;stroke-width:0.85858792px"
         id="path31"
         inkscape:connector-curvature="0" />
      <path
         d="m -52.624618,1375.3797 h 36.936451 l 9.2727494,7.5728 0.3090916,0.6182 -7.109108,39.7182 -0.463637,1.0819 -11.281845,7.1091 h -22.872782 l -5.100012,28.4364 h -13.909124 q -0.618183,0 -0.618183,-0.6182 l 9.272749,-53.0092 q 0,-0.7727 0.463637,-0.7727 h 13.445487 q 0.618183,0 0.618183,0.6181 l -2.627279,15.3001 h 17.000041 l 4.172737,-2.3182 5.254558,-29.5183 -3.554554,-2.7818 h -16.845495 l -0.927275,6.0273 q -0.309091,0.9273 -0.772729,0.9273 h -13.29094 q -0.77273,0 -0.77273,-0.6182 z"
         style="letter-spacing:-5.30000257px;stroke-width:0.85858792px"
         id="path33"
         inkscape:connector-curvature="0" />
      <path
         d="m 35.401739,1430.8617 -0.154546,0.6182 H 22.574435 l 7.572746,-43.7365 -3.090917,-2.3182 H 13.919869 l -2.781825,15.6091 q -0.309091,0.3091 -0.772729,0.3091 H -1.534713 l -0.6181833,-0.6182 14.3727613,-82.682 q 0.154546,-0.4636 0.927275,-0.4636 h 12.981849 l -10.35457,57.8001 h 18.700045 l 9.118203,7.2637 0.309092,1.0818 z"
         style="letter-spacing:-5.30000257px;fill:#aa0000;stroke-width:0.85858792px"
         id="path35"
         inkscape:connector-curvature="0" />
      <path
         d="m 93.868792,1424.0617 -0.309091,0.6181 -10.972754,6.8001 H 56.468703 l -9.272749,-7.4182 -0.309092,-0.6182 7.4182,-40.8001 11.745482,-7.2637 h 35.545536 q 0.61819,0 0.61819,0.6182 l -4.481832,25.3455 q -0.772729,0.7728 -0.927275,0.7728 H 63.423265 l -2.627279,15.4545 3.245463,2.6273 h 7.109108 l 1.236366,-6.1818 q 0.154546,-0.9273 0.618183,-0.9273 h 22.100053 q 0.309092,0 0.309092,0.3091 z m -8.809111,-28.2819 1.700004,-10.3546 H 69.91419 l -3.863646,2.3182 -1.545458,8.0364 z"
         style="letter-spacing:-5.30000257px;fill:#aa0000;stroke-width:0.85858792px"
         id="path37"
         inkscape:connector-curvature="0" />
      <path
         d="m 122.14628,1431.4799 h -11.90003 q -0.46363,0 -0.46363,-0.6182 l 19.93641,-112.6639 q 0,-0.6182 0.30909,-0.6182 h 11.1273 q 0.61818,0 0.61818,0.4636 z"
         style="letter-spacing:-5.30000257px;fill:#aa0000;stroke-width:0.85858792px"
         id="path39"
         inkscape:connector-curvature="0" />
      <path
         d="m 152.46424,1431.4799 h -11.90002 q -0.46364,0 -0.46364,-0.6182 l 19.93641,-112.6639 q 0,-0.6182 0.30909,-0.6182 h 11.1273 q 0.61818,0 0.61818,0.4636 z"
         style="letter-spacing:-5.30000257px;fill:#aa0000;stroke-width:0.85858792px"
         id="path41"
         inkscape:connector-curvature="0" />
    </g>
  </g>
</svg>
