<?xml version="1.0" encoding="UTF-8" standalone="no"?>
<!-- Created with Inkscape (http://www.inkscape.org/) -->

<svg
   xmlns:dc="http://purl.org/dc/elements/1.1/"
   xmlns:cc="http://creativecommons.org/ns#"
   xmlns:rdf="http://www.w3.org/1999/02/22-rdf-syntax-ns#"
   xmlns:svg="http://www.w3.org/2000/svg"
   xmlns="http://www.w3.org/2000/svg"
   xmlns:sodipodi="http://sodipodi.sourceforge.net/DTD/sodipodi-0.dtd"
   xmlns:inkscape="http://www.inkscape.org/namespaces/inkscape"
   width="744.09448"
   height="1052.3622"
   id="svg3393"
   version="1.1"
   inkscape:version="0.92.3 (2405546, 2018-03-11)"
   viewBox="0 0 744.09448 1052.3622"
   sodipodi:docname="logo-min.svg"
   inkscape:export-filename="/home/gram/Documents/dephell/assets/logo2.png"
   inkscape:export-xdpi="136.86"
   inkscape:export-ydpi="136.86">
  <defs
     id="defs3395" />
  <sodipodi:namedview
     id="base"
     pagecolor="#ffffff"
     bordercolor="#ffffff"
     borderopacity="0.0"
     inkscape:pageopacity="0.0"
     inkscape:pageshadow="0"
     inkscape:zoom="1.4"
     inkscape:cx="-152.99463"
     inkscape:cy="-107.11941"
     inkscape:document-units="px"
     inkscape:current-layer="layer1"
     showgrid="true"
     inkscape:snap-global="false"
     inkscape:snap-bbox="true"
     inkscape:bbox-paths="true"
     inkscape:snap-bbox-edge-midpoints="true"
     inkscape:bbox-nodes="true"
     inkscape:snap-bbox-midpoints="true"
     inkscape:object-paths="false"
     inkscape:snap-intersection-paths="false"
     inkscape:window-width="1366"
     inkscape:window-height="689"
     inkscape:window-x="0"
     inkscape:window-y="24"
     inkscape:window-maximized="1">
    <inkscape:grid
       type="xygrid"
       id="grid3473" />
  </sodipodi:namedview>
  <metadata
     id="metadata3398">
    <rdf:RDF>
      <cc:Work
         rdf:about="">
        <dc:format>image/svg+xml</dc:format>
        <dc:type
           rdf:resource="http://purl.org/dc/dcmitype/StillImage" />
        <dc:title></dc:title>
      </cc:Work>
    </rdf:RDF>
  </metadata>
  <g
     inkscape:label="Layer 1"
     inkscape:groupmode="layer"
     id="layer1">
    <g
       transform="translate(-440.12394,1038.3232)"
       id="g7" />
    <g
       transform="translate(-440.12394,1038.3232)"
       id="g9" />
    <g
       transform="translate(-440.12394,1038.3232)"
       id="g11" />
    <g
       transform="translate(-440.12394,1038.3232)"
       id="g13" />
    <g
       transform="translate(-440.12394,1038.3232)"
       id="g15" />
    <g
       transform="translate(-440.12394,1038.3232)"
       id="g17" />
    <g
       transform="translate(-440.12394,1038.3232)"
       id="g19" />
    <g
       transform="translate(-440.12394,1038.3232)"
       id="g21" />
    <g
       transform="translate(-440.12394,1038.3232)"
       id="g23" />
    <g
       transform="translate(-440.12394,1038.3232)"
       id="g25" />
    <g
       transform="translate(-440.12394,1038.3232)"
       id="g27" />
    <g
       transform="translate(-440.12394,1038.3232)"
       id="g29" />
    <g
       transform="translate(-440.12394,1038.3232)"
       id="g31" />
    <g
       transform="translate(-440.12394,1038.3232)"
       id="g33" />
    <g
       transform="translate(-440.12394,1038.3232)"
       id="g35" />
    <g
       id="g43"
       transform="matrix(0.61728063,0,0,0.57214266,-68.546636,498.65623)">
      <path
         id="path3"
         d="m 227.26667,1189.9206 c -7.50944,-8.5334 -15.01856,-17.408 -19.79744,-27.9894 -4.77856,-11.264 -6.144,-24.2346 -3.75456,-36.5226 2.38944,-12.288 7.85056,-23.8934 15.70144,-33.792 -0.68256,8.5335 2.38944,17.408 8.192,23.8935 -3.41344,-16.384 2.048,-34.1335 12.97056,-47.104 10.92256,-12.9706 25.94144,-21.5043 41.64256,-27.3069 -7.85056,8.192 -8.87456,21.1626 -5.80256,32.0854 3.072,10.9226 9.55744,20.48 15.36,30.3786 5.80256,9.8986 11.264,20.1386 11.60544,31.4026 3.072,-5.8026 6.48544,-11.6055 8.53344,-18.0906 2.048,-6.4854 3.072,-13.312 1.36544,-19.7974 6.144,7.5094 9.55744,15.0185 11.264,24.576 1.70656,9.5574 1.36544,19.456 0.34144,29.0134 -1.36544,10.5814 -4.096,21.504 -9.89856,30.3786 -6.82656,10.5814 -17.74944,18.0905 -29.696,22.1865 -21.1632,3.7549 -41.98464,0.6829 -58.0272,-13.3117 z"
         style="fill:#aa0000"
         inkscape:connector-curvature="0" />
      <path
         id="path5"
         d="m 253.20811,1202.5498 c 27.98912,10.9228 55.63712,-22.1866 40.27712,-47.7866 0,-0.3414 -0.34144,-0.3414 -0.34144,-0.6826 1.36544,13.9946 -2.048,24.2346 -8.53344,30.0375 3.41344,-8.192 1.024,-17.7495 -3.072,-25.9415 -4.096,-7.8505 -9.89856,-15.0185 -14.336,-22.528 -4.43744,-7.8505 -7.85056,-16.7254 -5.80256,-25.6 -8.192,6.144 -13.99456,15.36 -16.384,25.2586 -2.38944,9.8986 -1.024,20.8214 3.41344,30.0374 -5.12,-3.7545 -8.87456,-9.8985 -9.216,-16.384 -5.46144,6.4855 -8.87456,15.0186 -8.53344,23.552 3.2e-4,13.312 10.58144,25.2586 22.52832,30.0372 z"
         style="fill:#ffd15c"
         inkscape:connector-curvature="0" />
    </g>
  </g>
</svg>
