<?xml version="1.0" encoding="UTF-8" standalone="no"?>
<!-- Created with Inkscape (http://www.inkscape.org/) -->

<svg
   xmlns:dc="http://purl.org/dc/elements/1.1/"
   xmlns:cc="http://creativecommons.org/ns#"
   xmlns:rdf="http://www.w3.org/1999/02/22-rdf-syntax-ns#"
   xmlns:svg="http://www.w3.org/2000/svg"
   xmlns="http://www.w3.org/2000/svg"
   xmlns:sodipodi="http://sodipodi.sourceforge.net/DTD/sodipodi-0.dtd"
   xmlns:inkscape="http://www.inkscape.org/namespaces/inkscape"
   width="744.09448"
   height="1052.3622"
   id="svg3393"
   version="1.1"
   inkscape:version="0.91 r13725"
   viewBox="0 0 744.09448 1052.3622"
   sodipodi:docname="logo.svg"
   inkscape:export-filename="/home/gram/projects/github/dephell/assets/logo.png"
   inkscape:export-xdpi="90"
   inkscape:export-ydpi="90">
  <defs
     id="defs3395" />
  <sodipodi:namedview
     id="base"
     pagecolor="#ffffff"
     bordercolor="#ffffff"
     borderopacity="0.0"
     inkscape:pageopacity="0.0"
     inkscape:pageshadow="0"
     inkscape:zoom="0.175"
     inkscape:cx="-2117.5629"
     inkscape:cy="-557.51472"
     inkscape:document-units="px"
     inkscape:current-layer="layer1"
     showgrid="false"
     inkscape:snap-global="true"
     inkscape:snap-bbox="true"
     inkscape:bbox-paths="true"
     inkscape:snap-bbox-edge-midpoints="true"
     inkscape:bbox-nodes="true"
     inkscape:snap-bbox-midpoints="true"
     inkscape:object-paths="false"
     inkscape:snap-intersection-paths="false"
     inkscape:window-width="1920"
     inkscape:window-height="980"
     inkscape:window-x="0"
     inkscape:window-y="34"
     inkscape:window-maximized="1">
    <inkscape:grid
       type="xygrid"
       id="grid3473" />
  </sodipodi:namedview>
  <metadata
     id="metadata3398">
    <rdf:RDF>
      <cc:Work
         rdf:about="">
        <dc:format>image/svg+xml</dc:format>
        <dc:type
           rdf:resource="http://purl.org/dc/dcmitype/StillImage" />
        <dc:title></dc:title>
      </cc:Work>
    </rdf:RDF>
  </metadata>
  <g
     inkscape:label="Layer 1"
     inkscape:groupmode="layer"
     id="layer1">
    <g
       id="g3373"
       transform="matrix(0.32,0,0,0.32,426.60756,1100.5592)">
      <path
         id="path3"
         d="M 140.367,465.067 C 116.9,438.4 93.434,410.667 78.5,377.6 63.567,342.4 59.3,301.867 66.767,263.467 c 7.467,-38.4 24.533,-74.667 49.067,-105.6 -2.133,26.667 7.467,54.4 25.6,74.667 -10.667,-51.2 6.4,-106.667 40.533,-147.2 C 216.1,44.801 263.034,18.133 312.1,0 c -24.533,25.6 -27.733,66.133 -18.133,100.267 9.6,34.133 29.867,64 48,94.933 18.133,30.933 35.2,62.933 36.267,98.133 9.6,-18.133 20.267,-36.267 26.667,-56.533 6.4,-20.267 9.6,-41.6 4.267,-61.867 19.2,23.467 29.867,46.933 35.2,76.8 5.333,29.867 4.267,60.8 1.067,90.667 -4.267,33.067 -12.8,67.2 -30.933,94.933 -21.333,33.067 -55.467,56.533 -92.8,69.333 C 255.567,518.4 190.5,508.8 140.367,465.067 Z"
         style="fill:#f3705a"
         inkscape:connector-curvature="0" />
      <path
         id="path5"
         d="M 221.434,504.533 C 308.9,538.667 395.3,435.2 347.3,355.2 c 0,-1.067 -1.067,-1.067 -1.067,-2.133 4.267,43.733 -6.4,75.733 -26.667,93.867 10.667,-25.6 3.2,-55.467 -9.6,-81.067 -12.8,-24.533 -30.933,-46.933 -44.8,-70.4 -13.867,-24.533 -24.533,-52.267 -18.133,-80 -25.6,19.2 -43.733,48 -51.2,78.933 -7.467,30.933 -3.2,65.067 10.667,93.867 -16,-11.733 -27.733,-30.933 -28.8,-51.2 -17.067,20.267 -27.733,46.933 -26.667,73.6 0.001,41.6 33.067,78.933 70.401,93.866 z"
         style="fill:#ffd15c"
         inkscape:connector-curvature="0" />
    </g>
    <g
       transform="translate(-440.12394,1038.3232)"
       id="g7" />
    <g
       transform="translate(-440.12394,1038.3232)"
       id="g9" />
    <g
       transform="translate(-440.12394,1038.3232)"
       id="g11" />
    <g
       transform="translate(-440.12394,1038.3232)"
       id="g13" />
    <g
       transform="translate(-440.12394,1038.3232)"
       id="g15" />
    <g
       transform="translate(-440.12394,1038.3232)"
       id="g17" />
    <g
       transform="translate(-440.12394,1038.3232)"
       id="g19" />
    <g
       transform="translate(-440.12394,1038.3232)"
       id="g21" />
    <g
       transform="translate(-440.12394,1038.3232)"
       id="g23" />
    <g
       transform="translate(-440.12394,1038.3232)"
       id="g25" />
    <g
       transform="translate(-440.12394,1038.3232)"
       id="g27" />
    <g
       transform="translate(-440.12394,1038.3232)"
       id="g29" />
    <g
       transform="translate(-440.12394,1038.3232)"
       id="g31" />
    <g
       transform="translate(-440.12394,1038.3232)"
       id="g33" />
    <g
       transform="translate(-440.12394,1038.3232)"
       id="g35" />
    <text
       xml:space="preserve"
       style="font-style:normal;font-variant:normal;font-weight:normal;font-stretch:normal;font-size:180px;line-height:125%;font-family:Frak;-inkscape-font-specification:Frak;letter-spacing:0px;word-spacing:0px;fill:#000000;fill-opacity:1;stroke:none;stroke-width:1px;stroke-linecap:butt;stroke-linejoin:miter;stroke-opacity:1"
       x="-230.42535"
       y="1266.3622"
       id="text3369"
       sodipodi:linespacing="125%"><tspan
         sodipodi:role="line"
         id="tspan3371"
         x="-230.42535"
         y="1266.3622">Dep<tspan
   style="fill:#aa0000"
   id="tspan3479">hell </tspan></tspan></text>
  </g>
</svg>
